<svg width="113" height="111" viewBox="0 0 113 111" fill="none" xmlns="http://www.w3.org/2000/svg">
<g filter="url(#filter0_dii_2503_162)">
<path d="M29.7687 34.6179C30.8492 31.3021 32.4277 28.1363 34.5026 25.1568C36.5962 22.1782 39.1214 19.5841 42.0968 17.3754C45.0723 15.1667 48.4924 13.4712 52.3596 12.234C56.226 11.015 60.4349 10.5057 65.0051 10.707C71.6084 10.9977 77.2927 12.6372 82.0197 15.6419C86.7662 18.6293 90.2252 22.4191 92.3982 26.9748L79.5244 34.9624C78.8018 33.121 77.8612 31.5624 76.7009 30.3232C75.5228 29.065 74.2409 28.0398 72.8181 27.246C71.396 26.4339 69.9262 25.8574 68.4281 25.499C66.9114 25.1397 65.4442 24.9289 63.9892 24.8648C59.6989 24.6759 56.1446 25.5979 53.3442 27.6498C50.5439 29.7017 48.412 32.2765 46.9479 35.3925L68.9591 36.3617L65.1979 44.5312L44.7722 43.6319L44.7256 44.69C44.6975 45.3285 44.6888 45.9496 44.7004 46.535C44.712 47.1205 44.7236 47.7059 44.7725 48.293L65.4034 49.2013L61.66 57.3899L47.39 56.7616C48.8559 59.5497 50.8682 61.8135 53.409 63.5339C55.949 65.2725 58.9356 66.2083 62.3678 66.3594C63.8228 66.4234 65.3418 66.3075 66.9053 66.0291C68.4688 65.7506 69.986 65.2508 71.4358 64.5835C72.8864 63.8979 74.2347 62.9885 75.4808 61.8552C76.7276 60.7037 77.7432 59.2862 78.5478 57.5668L91.4918 65.8138C90.3177 68.2846 88.6512 70.4778 86.4736 72.3926C84.2961 74.3074 81.8345 75.8806 79.0703 77.1115C76.3061 78.3425 73.369 79.255 70.3158 79.8335C67.2439 80.4111 64.2441 80.6263 61.3528 80.499C57.4542 80.3274 53.8254 79.5461 50.4842 78.1743C47.1244 76.8017 44.1384 75.0069 41.487 72.8246C38.8357 70.6424 36.537 68.0918 34.5715 65.1904C32.606 62.2889 31.1149 59.2255 30.0608 55.9986L20.0998 55.56L23.8432 47.3715L28.2081 47.5636C28.1648 46.8489 28.1581 46.154 28.1505 45.4773C28.1429 44.8007 28.1548 44.1066 28.1861 43.3951L28.2078 42.9025L21.3619 42.6011L25.1053 34.4125L29.7687 34.6179Z" fill="#FFD64E"/>
</g>
<defs>
<filter id="filter0_dii_2503_162" x="0.0998535" y="0.664246" width="112.298" height="109.87" filterUnits="userSpaceOnUse" color-interpolation-filters="sRGB">
<feFlood flood-opacity="0" result="BackgroundImageFix"/>
<feColorMatrix in="SourceAlpha" values="0 0 0 0 0 0 0 0 0 0 0 0 0 0 0 0 0 0 127 0" result="hardAlpha"/>
<feOffset dy="10"/>
<feGaussianBlur stdDeviation="10"/>
<feColorMatrix values="0 0 0 0 0 0 0 0 0 0 0 0 0 0 0 0 0 0 0.08 0"/>
<feBlend in2="BackgroundImageFix" result="effect1_dropShadow_2503_162"/>
<feBlend in="SourceGraphic" in2="effect1_dropShadow_2503_162" result="shape"/>
<feColorMatrix in="SourceAlpha" values="0 0 0 0 0 0 0 0 0 0 0 0 0 0 0 0 0 0 127 0" result="hardAlpha"/>
<feOffset dy="3"/>
<feGaussianBlur stdDeviation="2"/>
<feComposite in2="hardAlpha" operator="arithmetic" k2="-1" k3="1"/>
<feColorMatrix values="0 0 0 0 1 0 0 0 0 1 0 0 0 0 1 0 0 0 0.25 0"/>
<feBlend in2="shape" result="effect2_innerShadow_2503_162"/>
<feColorMatrix in="SourceAlpha" values="0 0 0 0 0 0 0 0 0 0 0 0 0 0 0 0 0 0 127 0" result="hardAlpha"/>
<feOffset dy="-3"/>
<feGaussianBlur stdDeviation="2"/>
<feComposite in2="hardAlpha" operator="arithmetic" k2="-1" k3="1"/>
<feColorMatrix values="0 0 0 0 0 0 0 0 0 0 0 0 0 0 0 0 0 0 0.25 0"/>
<feBlend in2="effect2_innerShadow_2503_162" result="effect3_innerShadow_2503_162"/>
</filter>
</defs>
</svg>
